<?xml version="1.0" standalone="no"?>
<!DOCTYPE svg PUBLIC "-//W3C//DTD SVG 20010904//EN"
 "http://www.w3.org/TR/2001/REC-SVG-20010904/DTD/svg10.dtd">
<svg version="1.0" xmlns="http://www.w3.org/2000/svg"
 width="832.000000pt" height="832.000000pt" viewBox="0 0 832.000000 832.000000"
 preserveAspectRatio="xMidYMid meet">
<metadata>
Created by potrace 1.14, written by Peter Selinger 2001-2017
</metadata>
<g transform="translate(0.000000,832.000000) scale(0.100000,-0.100000)"
fill="#000000" stroke="none">
<path d="M2696 7702 c-2 -2 -39 -5 -82 -8 -94 -5 -166 -13 -274 -31 -19 -3
-46 -6 -60 -8 -14 -1 -36 -5 -50 -8 -14 -4 -36 -9 -50 -11 -61 -10 -216 -49
-295 -74 -27 -9 -52 -17 -55 -17 -37 -6 -333 -126 -395 -160 -22 -12 -67 -37
-100 -55 -33 -18 -93 -56 -134 -84 -40 -28 -81 -55 -89 -61 -74 -48 -237 -203
-327 -310 -27 -33 -53 -62 -56 -65 -14 -12 -109 -160 -109 -170 0 -5 -4 -10
-8 -10 -9 0 -81 -141 -122 -240 -48 -116 -102 -311 -116 -415 -2 -16 -6 -46
-9 -65 -29 -187 -22 -542 14 -730 6 -30 13 -66 16 -79 28 -144 141 -417 212
-510 7 -9 29 -39 50 -67 114 -154 312 -353 429 -431 22 -15 41 -29 44 -33 10
-14 115 -80 127 -80 6 0 13 -4 15 -9 4 -11 324 -172 368 -186 3 -1 23 -9 45
-19 22 -9 74 -31 115 -48 41 -16 89 -36 105 -43 17 -6 57 -22 90 -34 33 -13
71 -27 85 -33 14 -5 45 -16 70 -24 25 -8 54 -19 65 -24 11 -5 43 -17 70 -26
394 -131 565 -191 630 -219 17 -8 42 -17 58 -20 15 -4 30 -11 33 -16 3 -5 12
-9 20 -9 34 0 364 -162 433 -212 106 -78 184 -182 206 -276 3 -9 8 -33 13 -52
12 -47 5 -245 -8 -245 -1 0 -3 -10 -6 -22 -5 -28 -53 -113 -84 -149 -79 -92
-220 -162 -365 -182 -111 -15 -298 -6 -359 18 -14 5 -26 7 -26 4 0 -4 -6 -1
-14 5 -8 7 -22 13 -33 15 -43 9 -156 83 -219 144 -72 70 -148 242 -168 382 -2
14 -7 46 -11 73 l-7 47 -1026 -2 -1027 -3 3 -55 c1 -30 4 -66 7 -80 3 -14 8
-50 10 -80 3 -30 7 -65 10 -77 3 -13 7 -33 10 -45 3 -13 8 -41 10 -62 3 -21 8
-43 11 -48 3 -5 7 -19 9 -31 2 -12 9 -40 15 -62 6 -22 13 -49 15 -60 4 -22 66
-188 91 -245 73 -167 196 -361 314 -494 54 -61 184 -189 220 -216 17 -14 43
-35 56 -47 12 -13 26 -23 28 -23 5 0 23 -13 117 -83 25 -19 51 -35 94 -58 22
-12 42 -25 45 -28 8 -11 199 -109 280 -144 77 -34 207 -84 232 -90 15 -4 40
-12 55 -19 15 -6 33 -12 38 -13 6 -2 30 -8 55 -15 25 -7 50 -13 55 -15 6 -1
17 -5 25 -8 14 -5 97 -25 131 -31 8 -1 28 -5 44 -9 40 -9 83 -17 124 -22 33
-5 64 -11 106 -19 19 -3 124 -15 205 -22 155 -14 570 -24 570 -14 0 3 26 5 58
6 48 0 137 6 277 20 17 1 30 3 30 4 0 1 14 3 30 5 17 1 59 8 95 15 87 16 101
19 130 26 43 9 55 12 55 14 0 1 9 3 20 5 11 2 35 8 53 13 33 11 39 13 57 17
74 18 235 76 333 121 40 19 80 34 88 34 7 0 14 4 14 9 0 5 10 13 23 17 30 9
198 107 277 162 151 105 326 265 435 398 53 64 152 209 177 259 12 22 25 43
30 46 5 3 9 8 8 10 0 2 20 49 45 103 26 55 60 140 76 190 16 50 32 98 36 106
3 8 6 18 5 22 -1 3 5 28 13 55 7 26 16 64 18 83 3 19 6 35 7 35 2 0 10 54 15
105 2 25 4 45 5 45 1 0 3 27 6 60 7 86 10 315 4 315 -3 0 -6 24 -7 53 -1 44
-7 100 -18 167 -7 45 -17 97 -21 110 -3 8 -5 15 -4 15 0 0 -7 25 -16 55 -9 30
-18 60 -19 65 -13 51 -119 270 -151 312 -13 17 -24 35 -24 38 0 10 -135 173
-199 240 -78 81 -178 174 -226 210 -22 16 -42 32 -45 35 -12 13 -112 80 -183
124 -117 71 -332 177 -522 256 -11 5 -41 18 -67 29 -26 12 -49 21 -53 21 -3 0
-24 9 -48 19 -53 24 -221 88 -357 136 -58 20 -116 41 -130 47 -14 6 -50 18
-80 28 -30 10 -68 24 -85 31 -16 7 -33 13 -37 14 -5 2 -9 3 -10 5 -2 1 -10 3
-18 5 -19 4 -194 71 -237 91 -17 8 -34 14 -38 14 -4 0 -21 6 -38 14 -46 21
-107 45 -110 44 -1 -1 -45 20 -97 47 -316 162 -489 349 -486 528 1 20 -3 37
-7 37 -5 0 -6 4 -2 9 3 6 7 35 10 67 16 217 162 369 395 410 57 10 188 5 269
-12 152 -31 308 -131 379 -242 61 -94 94 -209 101 -343 l1 -25 1047 0 1048 1
-2 30 c-16 230 -49 414 -109 605 -38 122 -40 128 -103 260 -109 231 -254 425
-444 595 -52 47 -67 59 -142 118 -48 38 -125 90 -195 132 -36 21 -68 43 -71
48 -3 5 -10 9 -15 9 -5 1 -54 23 -109 50 -201 99 -459 184 -710 233 -61 12
-213 37 -249 40 -22 2 -63 7 -91 10 -27 3 -84 8 -125 10 -41 2 -75 5 -75 6 0
3 -506 5 -509 1z"/>
<path d="M6797 2753 c-2 -1 -32 -4 -68 -5 -35 -2 -70 -7 -77 -12 -6 -4 -15 -5
-20 -2 -4 2 -32 -2 -62 -10 -30 -8 -64 -16 -75 -18 -34 -7 -176 -66 -224 -94
-107 -61 -226 -164 -310 -266 -34 -41 -115 -177 -130 -217 -7 -19 -17 -43 -23
-54 -5 -12 -10 -27 -12 -35 -1 -8 -8 -33 -14 -55 -45 -162 -51 -430 -12 -580
6 -22 13 -49 16 -60 3 -11 6 -24 7 -30 2 -5 6 -16 10 -22 5 -7 5 -13 2 -13 -3
0 0 -12 8 -27 8 -16 27 -53 43 -83 15 -30 39 -73 53 -94 14 -21 31 -46 36 -55
26 -41 197 -201 257 -240 37 -24 69 -41 71 -39 3 1 13 -4 23 -13 16 -13 38
-25 64 -34 3 -1 16 -6 30 -12 99 -41 258 -74 382 -79 48 -1 92 -6 98 -9 5 -3
14 -4 19 -1 4 3 47 8 94 10 47 3 96 8 109 11 13 2 34 7 48 9 88 14 190 49 293
102 86 43 99 51 138 86 10 10 22 18 27 18 4 0 14 8 23 17 8 10 33 34 55 54 22
20 56 56 75 80 19 24 36 46 39 49 16 14 80 123 105 174 25 55 67 167 65 174
-1 1 1 15 4 30 14 62 17 80 23 142 10 109 3 299 -12 343 -2 6 -7 23 -9 37 -23
124 -103 304 -173 390 -65 81 -92 111 -135 149 -67 62 -160 131 -175 131 -7 0
-13 5 -13 11 0 5 -4 7 -10 4 -5 -3 -10 -1 -10 4 0 6 -9 11 -19 11 -11 0 -21 4
-23 10 -9 26 -250 93 -378 106 -62 6 -229 11 -233 7z"/>
</g>
</svg>
